<svg width="18" height="14" viewBox="0 0 18 14" fill="none" xmlns="http://www.w3.org/2000/svg">
<path fill-rule="evenodd" clip-rule="evenodd" d="M16.2861 6.3226C14.9713 4.38836 12.4175 1.56653 9 1.56653C5.58248 1.56653 3.02878 4.38836 1.71393 6.3226C1.51739 6.61168 1.51739 6.96488 1.71393 7.25395C3.02878 9.18819 5.58248 12.01 9 12.01C12.4175 12.01 14.9713 9.18819 16.2861 7.25395C16.4827 6.96488 16.4827 6.61168 16.2861 6.3226ZM0.418395 8.13465C-0.139465 7.314 -0.139465 6.26255 0.418395 5.4419C1.76382 3.46268 4.72813 0 9 0C13.2719 0 16.2362 3.46268 17.5816 5.4419C18.1395 6.26255 18.1395 7.314 17.5816 8.13465C16.2362 10.1139 13.2719 13.5766 9 13.5766C4.72813 13.5766 1.76382 10.1139 0.418395 8.13465ZM5.98607 7C5.98607 7.8186 6.87465 8.5 7.99998 8.5C9.12531 8.5 10.0139 7.8186 10.0139 7C10.0139 6.1814 9.12531 5.5 7.99998 5.5C6.87465 5.5 5.98607 6.1814 5.98607 7ZM7.99998 4C10.2091 4 12 5.3431 12 7C12 8.6569 10.2091 10 7.99998 10C5.79085 10 4 8.6569 4 7C4 5.3431 5.79085 4 7.99998 4Z" fill="#67717B"/>
</svg>
